<svg width="32" height="32" viewBox="0 0 32 32" fill="none" xmlns="http://www.w3.org/2000/svg">
<g clip-path="url(#clip0)">
<path d="M16.3149 32.0003C16.209 32.0003 16.103 32.0003 15.9963 31.9999C13.488 32.006 11.1704 31.9422 8.9165 31.805C6.8501 31.6793 4.96387 30.9652 3.46143 29.7401C2.01172 28.558 1.02173 26.9596 0.519043 24.9898C0.081543 23.275 0.0583496 21.5916 0.0361328 19.9635C0.0200195 18.7953 0.00341797 17.411 0 16.0033C0.00341797 14.5897 0.0200195 13.2054 0.0361328 12.0372C0.0583496 10.4093 0.081543 8.72592 0.519043 7.01084C1.02173 5.04111 2.01172 3.44272 3.46143 2.26059C4.96387 1.03549 6.8501 0.321382 8.91675 0.19565C11.1707 0.0586871 13.4888 -0.00527777 16.0024 0.000825754C18.5115 -0.00454534 20.8284 0.0586871 23.0823 0.19565C25.1487 0.321382 27.0349 1.03549 28.5374 2.26059C29.9873 3.44272 30.9771 5.04111 31.4797 7.01084C31.9172 8.72568 31.9404 10.4093 31.9627 12.0372C31.9788 13.2054 31.9956 14.5897 31.9988 15.9974C31.9956 17.411 31.9788 18.7953 31.9627 19.9635C31.9534 20.6539 31.3831 21.2057 30.6958 21.1964C30.0054 21.1869 29.4536 20.6195 29.4629 19.9293C29.4788 18.7679 29.4956 17.3927 29.4988 15.9974C29.4956 14.608 29.4788 13.2328 29.4629 12.0714C29.4426 10.5892 29.4216 9.05649 29.0574 7.629C28.6899 6.18906 27.9834 5.03476 26.9575 4.19809C25.8479 3.29306 24.4929 2.78598 22.9304 2.69101C20.7295 2.55722 18.4639 2.49545 16.0024 2.50058C13.5352 2.49472 11.2693 2.55722 9.06836 2.69101C7.50586 2.78598 6.15112 3.29306 5.04126 4.19785C4.01538 5.03452 3.30884 6.18882 2.94141 7.629C2.57715 9.05649 2.55615 10.5892 2.53589 12.0714C2.52002 13.2328 2.50342 14.608 2.5 16.0033C2.50342 17.3927 2.52002 18.7679 2.53589 19.9293C2.55615 21.4115 2.57715 22.9442 2.94141 24.3717C3.30884 25.8116 4.01538 26.9659 5.04126 27.8026C6.15112 28.7076 7.50586 29.2147 9.06836 29.3097C11.2693 29.4435 13.5356 29.506 15.9966 29.4999C18.4641 29.5057 20.7295 29.4435 22.9304 29.3097C24.4929 29.2147 25.8477 28.7076 26.9575 27.8026C27.6965 27.1998 28.2739 26.4264 28.6736 25.5035C28.948 24.8702 29.6838 24.579 30.3174 24.8534C30.9509 25.1278 31.2419 25.8636 30.9678 26.4972C30.4075 27.7909 29.5898 28.8819 28.5374 29.7401C27.0349 30.9654 25.1487 31.6793 23.0823 31.805C20.9238 31.9364 18.7065 32.0003 16.3149 32.0003ZM23.7493 16.0003C23.7493 11.6925 20.2446 8.18784 15.9368 8.18784C11.6292 8.18784 8.12427 11.6925 8.12427 16.0003C8.12427 20.3082 11.6292 23.8128 15.9368 23.8128C20.2446 23.8128 23.7493 20.3082 23.7493 16.0003ZM21.2493 16.0003C21.2493 18.9295 18.8662 21.3128 15.9368 21.3128C13.0076 21.3128 10.6243 18.9295 10.6243 16.0003C10.6243 13.0711 13.0076 10.6878 15.9368 10.6878C18.8662 10.6878 21.2493 13.0711 21.2493 16.0003ZM24.6243 5.68784C23.5889 5.68784 22.7493 6.52719 22.7493 7.56284C22.7493 8.59848 23.5889 9.43784 24.6243 9.43784C25.6599 9.43784 26.4993 8.59848 26.4993 7.56284C26.4993 6.52719 25.6599 5.68784 24.6243 5.68784Z" fill="#FFD766"/>
</g>
<defs>
<clipPath id="clip0">
<rect width="32" height="32" fill="white"/>
</clipPath>
</defs>
</svg>
