<svg width="32" height="32" viewBox="0 0 32 32" fill="none" xmlns="http://www.w3.org/2000/svg">
<g clip-path="url(#clip0)">
<path d="M28.712 9.484C30.0133 8.56 31.108 7.40667 32 6.07867V6.07733C30.8093 6.59867 29.5427 6.94533 28.22 7.11333C29.58 6.30133 30.6187 5.02533 31.1067 3.488C29.8387 4.244 28.4387 4.77733 26.9467 5.076C25.7427 3.79333 24.0267 3 22.1547 3C18.5227 3 15.5987 5.948 15.5987 9.56133C15.5987 10.0813 15.6427 10.5813 15.7507 11.0573C10.2973 10.7907 5.47067 8.17733 2.228 4.19467C1.66267 5.17733 1.32933 6.30133 1.32933 7.51067C1.32933 9.78267 2.49867 11.796 4.244 12.9627C3.18933 12.9427 2.156 12.636 1.28 12.1547V12.2267C1.28 15.4147 3.55333 18.0627 6.536 18.6733C6.00133 18.82 5.42 18.8893 4.816 18.8893C4.396 18.8893 3.972 18.8653 3.57467 18.7773C4.424 21.3747 6.83733 23.2853 9.704 23.348C7.472 25.0933 4.63733 26.1453 1.56933 26.1453C1.032 26.1453 0.516 26.1213 0 26.056C2.90667 27.9293 6.34933 29 10.064 29C21.6413 29 29.1867 19.3413 28.712 9.484Z" fill="#FFD766"/>
</g>
<defs>
<clipPath id="clip0">
<rect width="32" height="32" fill="white"/>
</clipPath>
</defs>
</svg>
