<svg width="32" height="32" viewBox="0 0 32 32" fill="none" xmlns="http://www.w3.org/2000/svg">
<g clip-path="url(#clip0)">
<path d="M16 0.666626C7.16 0.666626 0 7.70663 0 16.3893C0 23.3373 4.584 29.2293 10.94 31.3066C11.74 31.4546 12.0333 30.968 12.0333 30.5506C12.0333 30.1773 12.02 29.188 12.0133 27.8773C7.56267 28.8253 6.624 25.768 6.624 25.768C5.896 23.9533 4.844 23.468 4.844 23.468C3.39467 22.4933 4.956 22.5133 4.956 22.5133C6.56267 22.6226 7.40667 24.1333 7.40667 24.1333C8.83333 26.5373 11.152 25.8426 12.0667 25.4413C12.2107 24.424 12.6227 23.732 13.08 23.3386C9.52667 22.9453 5.792 21.5933 5.792 15.5693C5.792 13.8533 6.412 12.4506 7.43867 11.3506C7.25867 10.9533 6.71867 9.35463 7.57867 7.18929C7.57867 7.18929 8.91867 6.76796 11.9787 8.80129C13.2587 8.45196 14.6187 8.27863 15.9787 8.27063C17.3387 8.27863 18.6987 8.45196 19.9787 8.80129C23.0187 6.76796 24.3587 7.18929 24.3587 7.18929C25.2187 9.35463 24.6787 10.9533 24.5187 11.3506C25.5387 12.4506 26.1587 13.8533 26.1587 15.5693C26.1587 21.6093 22.4187 22.9386 18.8587 23.3253C19.4187 23.7973 19.9387 24.7613 19.9387 26.2346C19.9387 28.3386 19.9187 30.0293 19.9187 30.54C19.9187 30.952 20.1987 31.444 21.0187 31.2866C27.42 29.2226 32 23.3266 32 16.3893C32 7.70663 24.836 0.666626 16 0.666626Z" fill="#FFD766"/>
</g>
<defs>
<clipPath id="clip0">
<rect width="32" height="32" fill="white"/>
</clipPath>
</defs>
</svg>
