<svg width="42" height="46" viewBox="0 0 42 46" fill="none" xmlns="http://www.w3.org/2000/svg">
<path fill-rule="evenodd" clip-rule="evenodd" d="M40.7646 1.20455e-05C41.1127 0.000239019 41.4447 0.144367 41.6786 0.397103C41.9122 0.64893 42.0271 0.985532 41.9946 1.32429L38.2892 40.0611C38.2437 40.5392 37.9143 40.9457 37.4494 41.0974L22.6279 45.9395C22.5018 45.9794 22.37 45.9999 22.2376 46C22.1215 46.0006 22.0058 45.9851 21.8942 45.954L4.60255 41.1119C4.11275 40.9752 3.75865 40.5581 3.71083 40.0611L0.00546212 1.32429C0.00164096 1.28468 -0.000212272 1.24496 1.93138e-05 1.20513C0.00302993 0.536578 0.558488 -0.00293861 1.24062 1.20455e-05H40.7646ZM22.0917 36C21.9814 35.9993 21.8716 35.9833 21.7656 35.9527L13.4346 33.5889C13.0257 33.4733 12.71 33.1498 12.6063 32.7402L11.4162 28.0126C11.2423 27.3831 11.6153 26.7328 12.2492 26.5601C12.883 26.3875 13.5379 26.7579 13.7117 27.3874C13.7166 27.405 13.7209 27.4226 13.725 27.4405L14.7484 31.5062L22.0915 33.5911L29.3275 31.5369L30.393 22H11.2106C10.542 22 10 21.3284 10 20.5C10 19.6716 10.542 19 11.2106 19H30.7282L31.4697 12.3639H10.1902C9.53288 12.3639 9 11.8347 9 11.182C9 10.5292 9.53288 10 10.1902 10H32.8027C33.46 9.99603 33.996 10.522 34 11.1748C34.0002 11.2206 33.9979 11.2664 33.9927 11.3119L32.9882 20.2901C32.996 20.3587 33 20.4288 33 20.5C33 20.7159 32.9632 20.9212 32.8969 21.1068L31.6125 32.5863C31.5585 33.0628 31.22 33.4597 30.7556 33.591L22.4247 35.9548C22.3166 35.9856 22.2043 36.0007 22.0917 36Z" fill="#2196F3"/>
</svg>
