<svg width="42" height="46" viewBox="0 0 42 46" fill="none" xmlns="http://www.w3.org/2000/svg">
<path fill-rule="evenodd" clip-rule="evenodd" d="M40.7646 1.20455e-05C41.1127 0.000239019 41.4447 0.144367 41.6786 0.397103C41.9124 0.648816 42.0271 0.985418 41.9946 1.32429L38.2892 40.0611C38.2437 40.5392 37.9143 40.9457 37.4494 41.0973L22.6279 45.9395C22.5018 45.9794 22.37 45.9999 22.2376 46C22.1215 46.0005 22.0058 45.9851 21.8942 45.954L4.60255 41.1119C4.11275 40.9752 3.75865 40.5581 3.71083 40.0611L0.00546212 1.32429C0.00164096 1.28468 -0.000212272 1.24496 1.93138e-05 1.20513C0.00302992 0.536578 0.558488 -0.00293861 1.24062 1.20455e-05H40.7646ZM21.7738 35.9527C21.8798 35.9834 21.9895 35.9993 22.0999 36C22.23 36.0006 22.3593 35.9806 22.4831 35.9408L29.6232 33.5772C30.068 33.4294 30.3839 33.0361 30.4301 32.5727L31.6201 20.7545C31.6242 20.7133 31.6262 20.6719 31.626 20.6305C31.6227 19.9778 31.0873 19.4513 30.4301 19.4546H12.4393L11.5468 12.3637H32.8099C33.4672 12.3637 34 11.8346 34 11.1819C34 10.5292 33.4672 10 32.8099 10H10.1996C10.1463 9.9996 10.093 10.0028 10.0401 10.0095C9.38815 10.0918 8.92683 10.6833 9.00961 11.3308L10.1997 20.7852C10.2756 21.3792 10.7868 21.8229 11.3897 21.8182H29.1138L28.1333 31.5752L22.0737 33.5819L14.7574 31.5066L13.734 27.4412C13.73 27.4234 13.7257 27.4058 13.7207 27.3881C13.5469 26.7587 12.8922 26.3883 12.2584 26.561C11.6246 26.7336 11.2516 27.3838 11.4254 28.0132L12.6155 32.7405C12.7191 33.15 13.0348 33.4735 13.4437 33.5891L21.7738 35.9527Z" fill="#FF5722"/>
</svg>
