<svg width="46" height="46" viewBox="0 0 46 46" fill="none" xmlns="http://www.w3.org/2000/svg">
<g clip-path="url(#clip0)">
<path fill-rule="evenodd" clip-rule="evenodd" d="M44.3843 31.4847C45.4273 28.8589 46 25.9966 46 23C46 20.0034 45.4273 17.1411 44.3844 14.5153C43.8268 13.1109 43.1349 11.7741 42.3238 10.5218C41.277 8.90334 40.0322 7.42478 38.6231 6.12177C37.8186 5.37544 36.9605 4.68643 36.0547 4.06211C32.3464 1.50012 27.8488 0 23 0C18.1512 0 13.6536 1.50012 9.94534 4.06211C8.75968 4.88067 7.65478 5.80732 6.64556 6.82866C2.53656 10.9828 0 16.6961 0 23C0 29.3039 2.53656 35.0172 6.64556 39.1713C7.59845 40.1364 8.63668 41.0161 9.74823 41.8009C13.494 44.4463 18.0649 46 23 46C27.9351 46 32.506 44.4463 36.2517 41.8009C37.1398 41.1738 37.9809 40.4857 38.7705 39.7412C40.1185 38.472 41.3136 37.0403 42.3237 35.4782C43.1348 34.2259 43.8267 32.8891 44.3843 31.4847ZM35.1334 20.9309C34.4933 19.0744 31.8684 19.0744 31.3564 20.6108C30.8443 22.1472 32.5728 23.0434 35.2615 23.9398C37.9503 24.8361 39.6148 27.2048 39.2947 29.3173C38.9746 31.4298 38.0783 34.1827 32.7648 34.1827C29.444 34.1827 27.5984 32.107 26.6812 30.5504L29.6919 28.7411C29.6919 28.7411 30.7162 30.9178 32.6367 30.9178C34.5573 30.9178 35.3255 30.2776 35.3255 28.8052C35.3255 27.9952 34.0576 27.4206 32.579 26.7504C30.7854 25.9375 28.6818 24.984 28.1554 23.2996C27.1952 20.2267 28.4755 15.8735 32.9568 16.1935C35.7576 16.3936 37.333 17.7689 38.1208 18.7723L35.1334 20.9309ZM21.1774 16.5137V28.8053C21.1774 30.2776 19.8971 31.046 18.6167 30.7898C17.3363 30.5338 16.7602 28.9973 16.7602 28.9973L13.8154 30.9819C13.8154 30.9819 14.4555 33.9267 18.4887 34.1828C22.5219 34.4389 24.8264 32.0062 24.8264 29.9576V16.5137H21.1774Z" fill="#E4BA42"/>
<path d="M6.64556 4.0621V39.1713C7.59845 40.1364 8.63668 41.016 9.74823 41.8009H36.2518C37.1399 41.1738 37.981 40.4857 38.7705 39.7412H8.70523V6.12177H42.3237V35.4782C43.1348 34.2259 43.8267 32.8891 44.3843 31.4847V4.0621H6.64556Z" fill="#F2F2F2"/>
<path d="M7.89322 34.1189C9.90851 34.1189 11.5422 32.4852 11.5422 30.4699C11.5422 28.4546 9.90851 26.8209 7.89322 26.8209C5.87793 26.8209 4.24422 28.4546 4.24422 30.4699C4.24422 32.4852 5.87793 34.1189 7.89322 34.1189Z" fill="#3F4A43"/>
</g>
<defs>
<clipPath id="clip0">
<rect width="46" height="46" fill="white"/>
</clipPath>
</defs>
</svg>
